<svg xmlns="http://www.w3.org/2000/svg" viewBox="0 0 419 388">
  <defs>
    <linearGradient id="A" gradientUnits="userSpaceOnUse">
      <stop offset="0" stop-color="#304c43"/>
    </linearGradient>
    <linearGradient id="B" x1="70.7" y1="241.2" x2="-134.4" y2="241.4" gradientUnits="userSpaceOnUse">
      <stop offset="0" stop-color="#b8cebb"/>
      <stop offset="1" stop-color="#fff"/>
    </linearGradient>
    <linearGradient href="#A" id="C" x1="288.4" y1="98.8" x2="314.1" y2="98.8"/>
    <linearGradient href="#A" id="D" x1="-305.8" y1="321.9" x2="-279.9" y2="321.9"/>
  </defs>
  <path d="M129.8 30l168.8-.1c20.6-.1 53.5 2.4 73.4 31.3 5.3 7.3 13.2 21 13 45.7l.4 214.8c0 3.7-.1 6-2.4 9-4 3-6.8 2.6-11.7 2.6H364l4 11.2c2 5.4 2.2 11 1 11.8-2.4 2.3-9.7 2.4-15.3 2.4l-3.4.1c-5.2 0-8.3 0-12.8-2.7a55 55 0 0 1-6-8.2c-5-8-5-8-12.4-13.6l-8.5-.3c-19.7 0-155.2-.1-199.4-.1-5.4.5-9.6 1.7-13.3 5.7l-7.8 12c-4.7 6.6-4.7 6.6-8.8 7.3l-14-.1c-9-.1-9-.1-12.3-2.4-1.3-8 2.3-15.6 5-23l-10.4.3c-3.8-.3-5.6-1-8.6-3.3-2-4-2.2-5.7-2.2-10.2l.6-209C39.4 89.6 44 69 59 53c19.3-20.6 42.7-23.2 70.8-23z" fill="#304c43"/>
  <path d="M101.4 72.3L210.8 74l-.7 236-151 .3 1-206L68 83.7z" fill="#333e43"/>
  <path d="M0 0c346.4-.8 3.3 1 232.7-.1 36.4.1 40.8 1.7 40.5 44-.2 12.6.7 25.2 0 37.8 0 7-12.6 6.8-12.6.4l-.1-41.6c.1-25.5-1.7-28.2-19.4-28.7l-17-.6h-42-25l1 28-13-1 1-27h-26v227h26v-88l12-1v90h23c1.7-6-.8-28 3.4-32.4 3.4-.1 17.6-2.7 76.6-2.6v-15l-53.3.6c-11.6 4.2-18.8 5.2-29.2-2-.8-9.5 1-17.5 1-26.2l.5-57.3-12.7.2c-6.6 0-6-11.5 0-11.5h19.4c2.5.1 2.5-.5 4.4 1.4 1.6 2 1.2 3.8 1.2 7.5L192 164c13.5 1 13.8 2 15.7 14.3l53.3-.3v-28l-49.8.2c-2.2-.2-2.2-.2-4.2-2.2-.2-2.8-.2-2.8-.2-6.5L207 80l-26.6.2c-3.8 0-4.3-12-.4-12.5 2.5.2 2 .3 5.4 0 7.5 1 28.2-2.5 32.6 1.2a145 145 0 0 1 .1 6.5L218 139h50.7c2.3.2 2.3.2 4.3 2.2l.2 10-.1 91c0 6.8 0 6.8-1 8H-44l-.5-199c-.1-15.7 1.5-28 12.5-40C-22.2 2.7-12.8 0 0 0zm-29.4 25c-3.4 6.6-4 13.5-4 20.8L-33 238l138.7.1c2.3.1 2.3.1 3.3-1V18c.4-3.8.4-3.8-1-7L.7 10.6c-13 .1-22 4.5-30 14.4z" transform="translate(98.1 67.9)" fill="url(#B)"/>
  <path d="M340.4 97.6c5.8 0 5.7 0 5.8 5.8v4.5 2.5 8 5.6 14.7 15V183h21c5.6 0 5.6 0 5.6 4.8 0 6.3 0 6.4-5.8 6.4h-4.3-4.6-4.8-5l-13-1.2v-8.6-2.7-9-6.2-13-16.8-13-6.2-8.7-5c0-6 0-6 5.5-6z" fill="#adc8b0"/>
  <path d="M188.8 160.6c5.7 0 5.6-.1 5.7 9.5l-.1 55c0 6.6 0 6.6-6.8 6.6-6-.2-6-.2-6-9l.1-56c0-6.5 0-6.4 7-6.3z" fill="#a6c1ab"/>
  <g transform="matrix(1.03 0 0 1.03 -6.31 -3.49)">
    <circle cx="248.8" cy="126.2" r="20.5" fill="#b8cebb"/>
    <circle cx="248.8" cy="126.2" r="11.9" fill="#304c43"/>
  </g>
  <circle cx="248.9" cy="199.8" r="20.5" fill="#b8cebb"/>
  <circle cx="248.9" cy="199.8" r="11.9" fill="#304c43"/>
  <circle cx="289.6" cy="244.9" r="20.5" fill="#b8cebb"/>
  <circle cx="289.6" cy="244.9" r="11.9" fill="#304c43"/>
  <g stroke="#b8cebb">
    <rect width="25.7" height="43" x="288.4" y="77.3" rx="3" fill="url(#C)" stroke-width="18.5" paint-order="markers stroke fill"/>
    <rect width="25.9" height="74.3" x="-305.8" y="284.8" rx="3" transform="rotate(270)" fill="url(#D)" stroke-width="24.4" paint-order="markers stroke fill"/>
  </g>
</svg>
