<svg xmlns="http://www.w3.org/2000/svg" width="128" height="128">
  <g transform="rotate(30 63.9 64.8)" stroke="#000" stroke-width="1.3" stroke-linejoin="round" fill-rule="evenodd" fill="#ffbf00">
    <path d="M34.6 26.4v-11c0-3.7 4.3-6 5.7-6h41.3c1 0 5.4 2.5 5.4 5.8v11z"/>
    <g fill="none">
      <path d="M47.5 26.4v-11c0-3.6 6-5.7 8.8-5.7H65c3.4 0 9 2.3 9 5.6v11.3z"/>
      <path d="M74 26.4v-11c0-3.7 4.7-6 6.8-6h.8c1 0 5.4 2.5 5.4 5.8v11zm-39.4 0v-11c0-3.7 4.3-6 5.7-6h1c1 0 6.2 2 6.2 5.8v11z"/>
    </g>
    <path d="M38.8 28.2h44c1 0 1.7-2 3.4-2H35.5c1.7 0 2.3 2 3.3 2z"/>
    <path d="M47 28.2h27v36.4L71.8 67l2.4 2-2.4 2.3 2.4 2-2.4 2.3 2.4 2-2.4 2.3 2.4 2-2.4 2.4 2.4 1.8-2.4 2.4 2.4 1.8-2.4 2.5 2.4 2-2.4 2.3 2.4 2-2.4 2.3 2.4 2-2.4 2.4 2.4 1.8-2.4 2.3 2.4 2-2.4 2.2 2.4 1.8-2.4 2.3 2.4 2-2.4 2.4 2.6 1.5-5.3 5H51.5l-4.2-3 2.6-2-2.8-2L50 120l-2.8-2 2.8-2.2-2.8-2.2 2.8-2-2.8-2.2L50 107l-2.8-2 2.8-2.3-2.8-2 2.8-2.2-2.8-2 2.8-2.2-2.8-2 2.8-2-2.8-2 2.8-2-2.8-2 2.8-2.2-2.8-2L50 77 47 75l2.8-2.2L47 71l2.8-2.3-2.8-2.2L50 64 47 62.6z"/>
    <path fill="none" d="M61.7 127.7l10-1m-24.4-.6l27-2M50 124l22-1.4M47 122l27-1.8M50 120l22-1.5m-24.7-.6l27-1.8m-24.3-.4l22-1.4m-24.7-.8l27-1.5m-24.3-.5l22-1.6m-24.7-.7l27-1.7M50 107l22-1.2M47 105l27-1.8m-24.3-.5l22-1.5m-24.7-.6l27-1.7M50 98.5l22-1.5M47 96.4l27-1.6M50 94.2l22-1.2M47 92l27-1.7M50 90l22-1.4M47 88l27-1.6M50 85.7l22-1.4M47 83.6l27-1.6M50 81.4l22-1.6M47 79.3l27-1.8M50 77l22-1.4M47 75l27-1.6M50 72.8l22-1.3M47 71l27-1.8M50 68.7l22-1.6M47 66.5l27-2"/>
  </g>
</svg>
