<svg xmlns="http://www.w3.org/2000/svg" width="120.2" height="142.1" viewBox="0 0 31.8 37.6" fill-rule="evenodd" stroke="#000">
  <g fill="#987106" stroke-linejoin="round" stroke-width=".3">
    <path d="M4.4 26.4l13-7.5V2L4.5 9.6z"/>
    <path d="M2.8 25.5l1.6 1 .1-16.9L3 8.8z"/>
  </g>
  <g stroke-linejoin="round" stroke-width=".3">
    <path fill="#c28d0a" d="M4.4 24.7l11.5 6.5V33L4.4 26.4z"/>
    <path fill="#ac7f0b" d="M4.4 24.7l11.5 6.5 11.5-6.7-11.2-6.4z"/>
    <path fill="#c28d0a" d="M4.5 9.6l11.7 6.8v1.7L4.5 11.2z"/>
    <g fill="#e5ac1a">
      <path d="M4.5 9.6l11.7 6.8 11.4-6.7-11.5-6.9z"/>
      <path d="M16.1 1.2l1.3.8-1.3.8L4.5 9.6 3 8.8z"/>
      <path d="M16.1 2.8l11.5 6.9 1.5-.9L17.4 2z"/>
    </g>
    <path fill="#b3870f" d="M17.5 34l13-7.5V9.7l-12.9 7.5z"/>
    <path fill="#c28d0a" d="M15.9 33l1.6 1 .1-16.8-1.4-.8z"/>
    <path d="M16.2 16.4l12.9-7.6 1.4.9-12.9 7.5z" fill="#e5ac1a"/>
    <path fill="#cf990b" d="M1.2 9.3l11.1 10.1V36L1.1 26z"/>
    <path fill="#b3870f" d="M12.3 19.4l1.9-.6v16.7l-1.8.6z"/>
    <path fill="#e5ac1a" d="M1.2 9.3L3 8.8l11.2 10-1.9.6z"/>
  </g>
</svg>
