<svg xmlns="http://www.w3.org/2000/svg" width="64" height="64">
  <defs>
    <linearGradient id="A" x1="50" y1="13" x2="5" y2="60" gradientUnits="userSpaceOnUse">
      <stop offset="0" stop-color="#fce94f"/>
      <stop offset="1" stop-color="#c4a000"/>
    </linearGradient>
    <clipPath id="B">
      <use href="#C"/>
    </clipPath>
  </defs>
  <g fill-rule="evenodd" stroke="#231f0b" stroke-width="2" stroke-linejoin="round">
    <path d="M15.01 28.7a8.9 8.9 0 0 0-1.23.6l-7.67 4.42a6.7 6.7 0 0 1 2.91-.97l4.28.33c.56.05.94-.39 1.02-.78l.69-3.6z" fill="#c4a000"/>
    <path d="M16.1 12.88c-.17 0-.34.04-.49.13l-7.66 4.42c.16-.09.32-.13.49-.13 2.96.03 5.48 1 6.5 2l2.96 3.34c.33.37.86.47 1.27.24l.03-.02 2.8-1.74c.51-.32.49-.97.38-1.26l-1.58-3.93c-.3-.72-.27-1.5-.27-2.26-1.42-.54-2.93-.76-4.41-.79z" fill="#edd400"/>
    <g fill="#fce94f">
      <path d="M31.9 3.77a13.7 13.7 0 0 0-2.05.36l-7.66 4.42c.64-.25 1.37-.26 2.05-.36z"/>
      <path d="M32.02 3.77a.9.9 0 0 0-.12.01L24.24 8.2c.32-.05.65.07.88.31 2.14 2.13 3.38 4.61 3.45 6.08l-.1 4.4c-.02.5.34.97.81 1.09l5.94-3.43c.2-.6.66-1.04 1.08-1.5-.11-.19-.16-.39-.16-.59l.1-4.39c-.07-1.48-1.32-3.96-3.45-6.08-.18-.18-.41-.29-.64-.31-.04 0-.08-.01-.12-.01z"/>
    </g>
    <path d="M35.21 16.65l-5.94 3.43 3.28.87c.78.22 1.11-.48 1.2-.69z" fill="#edd400"/>
    <g fill="#fce94f">
      <path d="M48.43 8.24a13.2 13.2 0 0 0-2.69 1.16l-7.67 4.42c.85-.48 1.75-.87 2.69-1.16a1 1 0 0 1 .91.17l7.66-4.42c-.27-.21-.65-.26-.91-.17zm.92.17l-7.66 4.42 1.44 1.08 7.66-4.42z"/>
      <path d="M50.79 9.5l-7.66 4.42c.26.19.44.53.44.85.13 3.02-.68 5.58-1.62 6.6l-3.1 2.88c-.35.32-.41.9-.15 1.32l7.66-4.42c-.27-.42-.21-1 .15-1.32l3.1-2.88c.95-1.03 1.74-3.6 1.62-6.6 0-.32-.19-.66-.44-.85z"/>
      <path d="M46.37 21.14l-7.66 4.42 1.84 2.98 7.66-4.42z"/>
      <path d="M53.4 23.07l-3.94 1.5c-.44.17-.98-.02-1.25-.46l-7.66 4.42c.26.43.8.63 1.24.46l3.95-1.51c1.36-.4 4.02.05 6.6 1.48.28.15.51.46.56.78l7.66-4.42c-.05-.31-.28-.63-.56-.78-2.65-1.46-5.28-1.87-6.61-1.48z"/>
      <path d="M60.56 25.32l-7.66 4.42.32 1.78 7.66-4.42z"/>
      <path d="M60.89 27.1l-7.66 4.42c.06.31-.04.68-.25.89-.84.9-1.78 1.66-2.83 2.28l7.66-4.42c1.05-.62 2-1.38 2.83-2.28.21-.22.32-.58.25-.89z"/>
    </g>
    <path d="M42.81 35.34c-.43.03-.8.36-.88.78l-.68 3.34 6.72-3.88a3.4 3.4 0 0 1-.74.09l-4.42-.33z" fill="#edd400"/>
    <path d="M57.27 44.85l-7.66 4.42-.98 1.43c-.08.12-.18.21-.31.29l7.66-4.42c.13-.07.23-.17.31-.29z" fill="#fce94f"/>
    <path d="M48.9 35.3c-.3.13-.62.19-.93.28l-6.72 3.88c-.1.48.17 1.01.61 1.21l3.97 1.87c2.41 1.36 3.87 5.73 3.89 5.81.11.3.06.68-.12.93l7.66-4.42c.18-.25.23-.63.12-.93-.97-2.94-2.66-5.11-3.89-5.81l-3.97-1.87c-.33-.14-.62-.55-.63-.95zM37.51 45.42l-3.24 1.87c-.4.24-.57.79-.38 1.26l1.67 4.14c.47 1.45.13 4.18-1.1 6.73-.08.18-.21.32-.39.42l7.66-4.42c.17-.1.3-.24.39-.42.69-1.45 1.19-3.03 1.29-4.68a6.8 6.8 0 0 1-2.09-1.22l-2.84-3.21c-.44-.49-.76-.49-.97-.48z" fill="#edd400"/>
    <path d="M22.54 48.04l-1.61 3.99c-.56 1.11-1.91 2.07-2.76 2.56l7.67-4.42c.65-.37 1.24-.81 1.78-1.31-.23-.4-.64-.51-.64-.51l-3.28-.87c-.18-.05-.89-.08-1.15.57z" fill="#c4a000"/>
  </g>
  <path d="M35.32 16.38l-1.61 3.99c-.18.45-.68.7-1.15.57l-3.28-.87c-.47-.12-.83-.59-.81-1.09l.1-4.4c-.07-1.47-1.31-3.95-3.45-6.08-.24-.24-.57-.35-.88-.31l-1.71.24c-.29.04-.58.23-.73.54-1.35 2.85-1.5 5.46-1.1 6.73l1.67 4.14c.17.41.04 1-.38 1.26l-2.8 1.74c-.32.2-.89.24-1.3-.22l-2.96-3.34c-1.02-1-3.54-1.98-6.5-2-.34-.01-.64.17-.8.41l-.98 1.43c-.18.25-.23.63-.12.93.01.05 1.48 4.45 3.89 5.81l3.97 1.87c.36.15.72.69.61 1.21l-.68 3.34c-.08.37-.45.82-1.02.78l-4.28-.33C7.6 32.64 5.23 33.91 3.28 36c-.21.22-.32.58-.25.89l.32 1.77c.05.31.28.63.56.78 2.56 1.41 5.23 1.88 6.61 1.48l3.94-1.51c.44-.17.98.02 1.25.46l1.84 2.98c.27.42.21 1-.15 1.32l-3.1 2.88c-.94 1.02-1.74 3.58-1.62 6.6 0 .32.19.66.44.85l1.44 1.08c.25.2.62.26.91.17 2.66-.81 4.76-2.36 5.45-3.72l1.61-3.99c.1-.26.45-.71 1.15-.57l3.28.87c.46.12.82.62.81 1.09l-.1 4.4c.07 1.47 1.31 3.95 3.45 6.08.22.23.58.36.88.31l1.71-.24c.28-.04.58-.22.73-.54 1.23-2.55 1.57-5.28 1.1-6.73l-1.67-4.14c-.19-.47-.02-1.02.38-1.26l2.8-1.74c.29-.21.93-.2 1.29.22l2.96 3.34c.76.74 3 1.95 6.5 2 .34.01.63-.16.8-.41l.98-1.43c.18-.25.23-.63.12-.93-.02-.07-1.48-4.45-3.89-5.81l-3.97-1.87c-.44-.2-.72-.73-.61-1.21l.68-3.34c.09-.47.52-.82 1.02-.78l4.28.33c1.39 0 3.77-1.14 5.74-3.25.21-.22.32-.58.25-.89l-.32-1.78c-.05-.31-.28-.63-.56-.78-2.59-1.43-5.24-1.88-6.6-1.48L41.79 29c-.44.17-.98-.03-1.24-.46l-1.84-2.98c-.27-.43-.21-1 .15-1.32l3.1-2.88c.94-1.02 1.74-3.58 1.62-6.6 0-.32-.19-.66-.44-.85l-1.44-1.08c-.25-.2-.62-.26-.91-.17-3.09.94-4.92 2.67-5.45 3.72z" id="C" fill-rule="evenodd"/>
  <use href="#C" clip-path="url(#B)" fill="url(#A)" stroke="#fce94f" stroke-width="6"/>
  <use href="#C" stroke="#231f0b" stroke-width="2" fill="none"/>
</svg>
