<svg xmlns="http://www.w3.org/2000/svg" width="64" height="64">
  <defs>
    <linearGradient id="A" x1="17.6" y1="17.2" x2="47.1" y2="46.8" gradientUnits="userSpaceOnUse">
      <stop offset="0" stop-color="#f35c00"/>
      <stop offset="1" stop-color="#f13200"/>
    </linearGradient>
  </defs>
  <path fill="#f35c00" stroke-width="1.9" stroke="#b21209" stroke-linejoin="round" d="M29.5 3.4c-.2.1-.2.1-.3.1l-20.4 12a2123 2123 0 0 0 0 32c.2.3 1.4 1.2 1.4 1.2l20.6 12c0 0 .1 0 .3.1h2c.2-.1.3-.1.3-.1l20.6-12 1.4-1.2c.2-.4 0-32 0-32-.4-.4-20.4-12-20.4-12-.2 0-.2-.1-.3-.1z"/>
  <path transform="matrix(.96 0 0 .96 1.33 1.34)" fill="url(#A)" d="M30 5.2L10.6 16.4v30.3l.3.2 20.7 12h.8L53 47l.3-.2V16.4L34 5.2z"/>
  <path fill="none" stroke="#b21209" stroke-width="1.2" d="M33.3 6.4V3.3m-2.6 3.2V3.3m0 3.2l-6 3.5m8.7-3.5h-2.6m23 11.7L33.3 6.4M24.6 10l-14.2 8.2m14-7.7L46 23m-12.5 7V15.7m-9-5.6v.4m6 19.4V14M9.7 18L30 30h4L54.3 18m-45 .3l20.3 11.7m0 0h5m-5 0V60m5-29.8V60m0-29.8l20.3-11.7"/>
  <path fill="#f57900" d="M14 26.2c-.2-.1-.5-.1-.8 0s-.4.4-.4.7l.1 16.6c0 .5.2 1 .5 1.4.3.5.7.8 1.2 1s1 .4 1.5.2c.3-.1.5-.3.7-.5s.2-.5.2-.8v-7l5 3c.5.3 1 .4 1.5.2.3-.1.5-.3.7-.5.2-.3.2-.5.2-.8 0-.5-.2-1-.5-1.4-.3-.4-.7-.8-1-1l-5.8-3.3V32l7.5 4.3c.5.3 1 .4 1.5.2.3-.1.5-.3.7-.5s.2-.5.2-.8c0-.5-.2-1-.5-1.5s-.7-.8-1.2-1z"/>
  <path fill="#b21209" d="M13.6 43.5L13.5 27l11.2 6.4c.4.2.7.5 1 1s.4.7.4 1c0 .3-.1.5-.4.6s-.6 0-1-.2l-8.7-5v3.5l6.2 3.6c.4.2.6.5 1 .8.3.4.4.7.4 1s-.1.5-.4.6c-.2.1-.5 0-1-.2L16 36.5V45c0 .3-.1.5-.4.6s-.5 0-1-.2-.6-.5-1-1c-.2-.4-.4-.7-.4-1z"/>
  <path fill="#f57900" d="M50 27c-.5-.2-1 0-1.4.2l-3.5 2c-1.3.7-2.4 1.8-3 3.2l-3.3 6c-.7 1.3-1.2 2.6-1.2 3.8v6.3c0 .6.1 1 .4 1.6s.7.8 1.2 1a.7.7 0 0 0 0 0c1 .3 2.2 0 3.3-.7l5-3c1-.7 2-1.7 2.8-3 .8-1.2 1.2-2.4 1-3.5v-4.5a.7.7 0 0 0-1.1-.6l-4.8 3c-.4.3-.8.6-1 1a.7.7 0 0 0 0 0c-.3.4-.4 1-.4 1.4s.3 1 .8 1.3a.7.7 0 0 0 .1 0c.5.1 1 0 1.4-.3l1.4-.8v1c0 .1-.1.3-.3.7a.7.7 0 0 0 0 0c-.2.3-.4.5-.6.6l-4.8 3c-.1.1-.1.1-.2.1v-6c0-.4.1-.8.4-1.4l3.3-5.8a.7.7 0 0 0 0 0c.2-.3.4-.6.7-.7l3.5-2c.4-.2.8-.6 1-1s.5-1 .4-1.4-.4-1-1-1.2z"/>
  <path fill="#b21209" d="M38 48.4V42a7 7 0 0 1 1.1-3.4l3.3-6c.7-1.3 1.7-2.2 3-3l3.5-2c.3-.2.6-.2.8-.2s.4.3.4.5c0 .3-.1.6-.3 1s-.5.6-.8.8l-3.5 2c-.4.2-.7.6-1 1L41 38.8c-.3.6-.5 1.2-.5 1.7v6.2c0 .3.1.5.4.6s.6 0 1-.2l4.8-3c.3-.2.6-.5.8-1 .3-.4.4-.7.4-1V40l-2.4 1.5c-.3.2-.6.3-1 .2-.2-.1-.4-.3-.4-.6s.1-.7.3-1c.2-.4.5-.7 1-1l4.8-3 .1 4.5c0 1-.3 2-1 3-.7 1-1.6 2-2.6 2.7l-5 3c-1 .7-2 1-2.7.7-.8-.2-1-1-1-2z"/>
</svg>
