<svg xmlns="http://www.w3.org/2000/svg" width="64" height="64" viewBox="0 0 16.93 16.93">
  <path d="M.89 16.47c-.11 0-.3-.04-.29-.18l-.04-3.36c.18.05.28.18.42.28.23.15.37.4.56.6.1.13.21.29.34.1.07-.05.14-.11.21-.02l.23.15c-.12.09-.24.16-.36.24 1.18 1.35 1.6 1.46 2.01 1.98.09.16-.12.27-.24.33-.09.05-.21.02-.31.03-1.1.02-2.02-.15-2.52-.13zm2.53-.03c.22 0 .37-.27.16-.41l-1.64-1.54c-.06-.05-.11-.13-.17-.17-.05-.01-.18.05-.16-.04-.01-.07.03-.15-.05-.2l-.69-.78.04 2.96c.83.1 1.67.22 2.51.17zm8.91-.34c-.18.08-.32-.14-.39-.26a26.8 26.8 0 0 0 3.8-2.94c.1-.09-.1-.39.11-.25.12.09.43.14.36.33-.04.07-.17.1-.15.2-.01.9-.17 1.8-.11 2.71.01.14.06.36-.16.29-1.14-.09-2.32-.18-3.46-.08zm3.45-2.74l-3.21 2.49c.17.11 1.1-.05 2.17.06l.9.07c-.04-1.2.12-2.04.13-2.63zM3.52 15c-.02-.08-.16-.33-.08-.33.11.06.23.11.33.19-.01.07-.24.38-.25.14zm7.2-.08c.05-.01.01.02 0 0zm-.05-.01c.05-.01.01.02 0 0zm-.05-.01c.05-.01.01.02 0 0zm-.05-.01c.05-.01.01.02 0 0zm-.35-.02l-1.57-.47-3.18-1.23c-.12-.02-.36-.37-.33-.09-.04.57-.49 1.06-1.61.86-.92-.26-1.69-1.15-1.47-1.81.16-.51.7-.81 1.22-.86.29-.03.6.02.84.19.27.14.54.35.62.66-.09.01-.18-.08-.27-.11-.06-.12-.1-.28-.21-.37-.24-.3-1.16-.29-1.6.2-.65.59-.16 1.49.43 1.85.45.2 1.63.2 1.75-.57.03-.2.02-.4.03-.59.04-.03.1-.16.13-.06.08.19.27.04.42.04l2-.22 2.32-.17c.13-.03.35-.01.42-.08l-1.03-1.46-3.77 1.6-.24-.16 3.92-1.55c-.15-.28-.36-.53-.56-.78L7.32 8.19l-.45-.62c.05-.16.18.06.26.08.26.26.45.59.67.89.43.63 1.01 1.19 1.43 1.83l1.68-.73-1.14-1.69-1.52-1.97c-.05-.06-.11-.28.02-.13.37.32.64.73.95 1.11 1.06 1.32 1.49 2.16 1.83 2.62l1.38-.55c.12-.04.46-.04.25-.21l-1.94-2.4L8.8 3.88c-.23-.31-.5-.61-.65-.98.1.04.24.23.35.34L10 5.15l1.49 1.96 1.42 1.71.3.42c.06.08.23.28.02.16-.08-.04-.18-.06-.22-.15l-.22-.29c-.13.07-.24.18-.39.22l-1.25.52 1.41 1.99.51.75c-.1-.04-.21-.08-.31-.14-.09-.12-.15-.26-.26-.36-.51.09-1.13.09-2.02.27l1.31 1.84.28.4c-.15-.06-.32-.11-.4-.27l-1.16-1.68-.2-.27c-.73.12-1.47.1-2.2.16a19.2 19.2 0 0 0-2.81.37c-.09-.07-.2-.15-.14.03-.02.25.34.24.49.36 1.23.55 2.5.98 3.79 1.36a8.5 8.5 0 0 1 1.03.34c.13.03.02.03-.05.03l-.19-.01zm2.22-3.06a34.2 34.2 0 0 0-1.43-2.04c-.59.2-1.14.49-1.72.73l1.06 1.52c.32-.05 1.72-.21 2.09-.2zm.31 2.88c.13-.56.49-1.03.74-1.54.38-.74.72-1.53.78-2.37.04-.39-.06-.79-.27-1.13.12.03.24.1.36.15.18.36.27.78.19 1.19-.19 1.15-.72 2.21-1.32 3.2-.13.2-.3.37-.47.52-.01.01-.01-.02-.01-.02zm-7.63-.18c-.09-.05-.33-.24-.1-.14.08.03.37.13.22.21-.04-.02-.08-.05-.12-.08zm-3.76-1.39c-.06-.05-.25 0-.24-.1.02-.24.35-.18.46-.04.08.05.24.14.05.13l-.27.01zm.69-1.73c-.08-.04-.19-.05-.22-.15-.13-.09 0-.2.09-.1.13.09.26.18.32.32l-.19-.08zm1.15-.5c-.06-.04-.15-.05-.14-.13-.01-.07-.04-.14.03-.18.12-.02.22.25.24.37l-.13-.06zm1.23-.03c-.26-.04.09-.34.1-.09.04.13.04.18-.1.09zm.08-.22c-.21-.04-.06-.35.1-.34.1 0 .12.22.07.3-.03.14-.07.09-.17.04zm.16-1.36c-.25-.13-.42-.38-.63-.55-.17-.16-.39-.25-.58-.39a29.4 29.4 0 0 1 1.79-3.3l2.22-3.73c.03-.15.11-.19.23-.09.12.1.42.18.42.29-.13-.03-.3-.25-.34 0-.93 1.69-2.56 3.92-2.8 4.39-.38.84-.87 1.63-1.17 2.5 0 .2.31.22.43.37.1.08.25.25.27.02a23.9 23.9 0 0 1 1.25-2.72l1.67-3.09.72-1.34c.14.07.43.16.22.34L5.72 6.92a16.6 16.6 0 0 0-.96 2.28c-.01.06-.02.12-.1.08zm11.56-3.47c-.21-.06-.32-.23-.38-.43-.05-.15-.2-.32-.1-.48.09.07.23.28.18.04l-.12-3.71c.08-.28-.23-.12-.39-.13l-2.15.1c-.19.01-.4.07-.54-.1-.24-.14.18-.1.28-.12l2.21-.14c.22-.01.44-.08.66-.04.09.06.34.21.33.25-.04.18-.04.39-.06.58-.06 1.38.04 2.79.21 4.17.05.17-.04.07-.12.04zm-.61-.99a5.3 5.3 0 0 1-1.39-1.42l-1.27-1.83c-.16-.17-.25-.24-.31-.41.38.19.65.51.88.86l1.31 1.86.86.95c-.02.03-.07-.01-.09 0zM.55 4.45c-.16-.12-.1-.35-.1-.52.09-1.73.09-1.94-.22-2.88C.23.9.02.65.2.58l1.85.06c.32 0 .64-.1.96-.04.12.04.41.12.3.26C2.54.91 1.76.88.98.83.81.85.57.76.44.85c.03.33.18.64.23.97a12.4 12.4 0 0 1 .1 1.97 9.5 9.5 0 0 0 .82-1.17 9.6 9.6 0 0 1 1.1-1.42c.11-.11.2-.35.37-.17.1.07.33.13.14.25-.48.49-.92 1.01-1.26 1.61A9.2 9.2 0 0 1 .9 4.35c-.09.07-.23.15-.35.1z"/>
</svg>
