<svg xmlns="http://www.w3.org/2000/svg" width="64" height="64">
  <defs>
    <linearGradient id="A" x1=".28" y1=".95" x2=".16" y2=".05">
      <stop offset="0" stop-color="#a40000"/>
      <stop offset="1" stop-color="#ef2929"/>
    </linearGradient>
    <linearGradient id="B" x1=".61" y1=".79" x2=".39" y2=".15">
      <stop offset="0" stop-color="#204a87"/>
      <stop offset="1" stop-color="#729fcf"/>
    </linearGradient>
    <clipPath id="C">
      <path id="D" d="M56.6 40L53 42l-1.5-.5-1.5-3.8-2.3.1-1 4-1.5.7-3.7-1.6-1.6 1.7 2 3.5-.5 1.5-3.8 1.5.1 2.3 4 1 .7 1.5-1.6 3.7 1.7 1.6 3.5-2 1.6.6 1.5 3.8 2.3-.1 1-4 1.5-.7 3.7 1.6 1.6-1.7-2-3.5.5-1.6 3.8-1.5-.1-2.3-4-1-.7-1.5 1.6-3.7zm-2.8 9.6a4.3 4.3 0 0 1-8.6 0 4.3 4.3 0 0 1 8.6 0z"/>
    </clipPath>
    <clipPath id="E">
      <path d="M28.5 28.5v33h6.8V47.8H42V41h-6.8v-5.7h11.3v-6.8z" fill="#000" stroke="none" stroke-width="1.1"/>
    </clipPath>
    <path id="F" d="M28.5 28.5v33h6.8V47.8H42V41h-6.8v-5.7h11.3v-6.8z"/>
  </defs>
  <g stroke="#000">
    <path d="M4.3 31.7c0 14.8 11 26.2 24.6 28 4.5.6 6 0 7.2-1.5 3.4-4.2-2-6.5-1-10.2.4-1.4 1.3-2.6 2.6-3.2 1.8-.8 8.2-.3 9.3-.5 6.7-1 15.2-7 13.6-18.6C58.5 11 43.7 2.6 31 3.5 15.7 4.6 4.2 16.8 4.3 31.7zm50-4.7c0 2.6-2 4.7-4.7 4.7S45 29.6 45 27c0-6.3 9.4-6.3 9.4 0zM45 14.5c0 2.6-2 4.7-4.7 4.7s-4.7-2-4.7-4.7c0-6.3 9.4-6.3 9.4 0zm-15.7 0c0 2.6-2 4.7-4.7 4.7S20 17 20 14.5c0-6.3 9.4-6.3 9.4 0zM20 27c0 2.6-2 4.7-4.7 4.7s-4.7-2-4.7-4.7c0-6.3 9.4-6.3 9.4 0z" fill="#f4c074"/>
    <circle cx="15.2" cy="27" r="4.7" opacity=".9" fill="#fe130b"/>
    <circle cx="24.6" cy="14.5" r="4.7" opacity=".9" fill="#fef90b"/>
    <circle cx="40.3" cy="14.5" r="4.7" opacity=".9" fill="#1813f1"/>
    <circle cx="49.7" cy="27" r="4.7" opacity=".9" fill="#18860b"/>
  </g>
  <use href="#D" fill="url(#B)" stroke="#729fcf" clip-path="url(#C)" stroke-width="3.4"/>
  <use href="#D" fill="none" stroke="#000137" stroke-width="1.1"/>
  <use href="#F" fill="url(#A)" stroke="#ef2929" clip-path="url(#E)" stroke-width="3.4"/>
  <use href="#F" fill="none" stroke="#280000" stroke-width="1.1"/>
</svg>
