<svg xmlns="http://www.w3.org/2000/svg" height="64" width="64" stroke-linejoin="round">
  <style><![CDATA[.F{fill:#babdb6}.G{fill:#d3d7cf}.H{fill:#eeeeec}]]></style>
  <defs>
    <linearGradient id="A" x1="52.54" y1="29.61" x2="27.72" y2="40.64" gradientUnits="userSpaceOnUse">
      <stop offset="0" stop-color="#8f5902"/>
      <stop offset="1" stop-color="#e9b96e"/>
    </linearGradient>
    <path id="B" d="M3.92 43.78L28.2 59.46l31.87-20.58v-4.41l-7.54-4.87v-9.39l-15.13-9.7v-4.2L35.67 5.2l-1.57.87-.16 2.15-5.7-3.68-4.78 3.09-.77-.47L21 8.2V11l2.11 1.7v8.85l-2.17 4.93v1.9L3.92 39.37z"/>
  </defs>
  <g stroke="#2e3436">
    <use href="#B" fill="#2e3436" stroke-width="4"/>
    <g class="F">
      <path d="M28.21 59.46v-4.41L3.92 39.37v4.41z"/>
      <path d="M53.92 32.3L24.79 51.38l-15.18-9.8 29.47-18.71zm-50 7.07L28.2 55.05l31.87-20.58L36.1 18.45z"/>
    </g>
    <path d="M19.45 47.93l3.44-2.22-2.14-1.39-3.44 2.22zm-6.42-4.15l3.44-2.22-3.41-2.2-3.44 2.22 3.41 2.2z" fill="#888a85"/>
    <path d="M23.47 12.95V7.63l-.82-.58-1.78 1.13-.02 2.91z" class="H"/>
    <g class="F">
      <path d="M20.94 28.39l1.9 1.22v-1.9l2.18-4.93V9.08l-1.9-1.22v13.7l-2.17 4.93z"/>
      <path d="M25.01 9.08v13.7l-2.18 4.93v1.82l7.31-4.65v-8.27l-1.68-1.08V6.85z"/>
    </g>
  </g>
  <g>
    <path d="M36.99 21.03L11.7 37.5v.98l16.9 10.91 25.79-17.12z" fill="url(#A)" stroke="#271903"/>
    <path d="M42.89 27.24v.82l-5.88 3.79-1.61-1.04a2.9 2.9 0 0 1-.18.75v1.54h-1.14v1.92c0 1.83-1.76 2.53-2.82 2.53s-2.81-.7-2.81-2.53v-1.98a3.1 3.1 0 0 1-1.34-2.57l-.4-.26L14.65 38l13.95 9 13.78-8.89 1.11-2.53v-7.95z" fill="none" stroke="#e9b96e" stroke-width="2"/>
  </g>
  <g stroke="#2e3436">
    <path d="M28.47 15.53L45.5 26.52v-4.21l3.46-2.23L28.47 6.85z" class="F"/>
    <path d="M48.96 20.08l-3.46 2.23 1.9 1.22 5.14-3.32L28.25 4.54l-5.14 3.32 1.9 1.22 3.46-2.23z" class="G"/>
    <g class="F">
      <path d="M31.7 16.46v-1.54l-4.36-2.81c-.17-.11-.44.07-.6.39s-.17.67 0 .78z"/>
      <path d="M31.7 26.04l5.31 3.43V15.24l-5.31-3.43z"/>
    </g>
    <path d="M31.7 11.82l5.31 3.43 3.87-2.5-5.32-3.41z" class="G"/>
    <path d="M40.88 12.75l-3.87 2.5v14.22l3.87-2.5z" fill="#888a85"/>
    <path d="M33.95 6.17v6.61l1.74 1.14 1.72-1.14.01-6.6-1.77-1.13z" class="H"/>
    <path d="M40.24 20.42h0c-.16-.1-.43.05-.6.39-.2.38-.13.69 0 .78l5.86 3.78v-1.55z" class="F"/>
    <path d="M31.37 15.5l-.76.49v8.69l5.97 3.6.76-.49v-8.44z" class="G"/>
    <path d="M32.07 31.95h-1.61v3.07c0 .29.36.52.8.52s.81-.23.81-.52z" class="H"/>
    <path d="M33.41 29h-4.29v1.51c0 .37.23.72.63.98l.95.61c.28.18.8.22 1.14 0l1.12-.74c.18-.12.46-.44.46-.85z" fill="#8ae234"/>
    <path d="M31.3 23.36l-3.4 2.16v3.06l1.54.99h3.11l3.38-2.18v-1.05z" class="F"/>
    <path d="M29.11 26.35c0 .77.96 1.39 2.14 1.39 1.01 0 2.15-.53 2.15-1.39v-2.89c0-1.22-.95-2.21-2.21-2.17-1.11.03-2.07.9-2.08 2.17z" fill="#8ae234"/>
    <path d="M45.5 36.01l-2.18 4.94v1.9l1.9 1.22v-1.9l2.18-4.94v-13.7l-1.9-1.22z" class="F"/>
    <path d="M52.54 20.22l-5.14 3.32v13.7l-2.18 4.94v1.9L28.21 55.05v4.41l31.87-20.58v-4.41l-7.54 4.87z" class="G"/>
  </g>
  <use href="#B" fill="none" stroke="#eeeeec"/>
</svg>
