<svg xmlns="http://www.w3.org/2000/svg" width="64" height="64" viewBox="0 0 16.93 16.93" stroke-linejoin="round" stroke-width=".2" stroke="#000">
  <g fill="#b0b0b0">
    <path d="M10.26 12.5L3.78 8.7l-1.42 2.42 6.47 3.8zM14 5.96L12.7 8.3 6.16 4.62l1.37-2.46z" />
    <path d="M12.51 8.99l2.04 1.2.68-.38-2.02-1.22zm-1.16 3.45l1.24-.75 1.41.83-1.24.75zm1.34-4.14L6.15 4.61 4.29 5.69l6.5 3.79zm-2.07 6.2l-.62-.35-.61 1.08zm-1.76-1.04L2.39 9.67l-.75.39 6.47 3.81zm6.35-8.96L8.74.69 6.27 2.04l6.47 3.81z" />
    <path d="M10.6 7.09L4.12 3.3 1.68 4.71l6.46 3.8z" />
  </g>
  <g fill="#969696">
    <path d="M12.75 14.08l-6.47-3.82v-.81l6.48 3.82zm.36-4.74l1.44.85.01 1.5-1.46-.87z" />
    <path d="M10.26 12.5v-2.16L3.79 6.53v2.16zm-2.15 1.37l.05 2.86-6.47-3.81-.05-2.86zm4.63-8.02l.01.8-6.47-3.81-.01-.8z" />
    <path d="M8.14 8.51l-.01 2.89-6.47-3.79.02-2.9zm6.37-.81l-.6-.36.61-1.06z" />
  </g>
  <g fill="#888888">
    <path d="M8.11 13.87l.05 2.86 2.46-1.38v-.85l-1.23.73 1.39-2.47 1.82-1.03 1.4.79-1.24.75-.01.81 2.47-1.4.01-2.87-.7.4.01 1.5-1.44-.83.01-2.18 1.41-2.4-.01 1.4.7-.4V4.5l-2.47 1.35.01.8 1.24-.7-1.37 2.46-1.86 1.07-1.41-.87 1.24-.66.01-.86-2.46 1.42-.01 2.89.71-.41.01-1.47 1.42.8v2.16l-1.42 2.43.01-1.45z" />
    <ellipse cx="15.5" cy="2.8" rx=".7" ry="1.2" transform="rotate(32)" />
  </g>
</svg>
