<svg xmlns="http://www.w3.org/2000/svg" width="64" height="64">
  <rect ry="10" height="64" width="64"/>
  <g fill="#fff">
    <path d="M55.643 30.85v13.146c0 .08.007.157.023.232-.65.384-1.084 1.091-1.084 1.9v4.41c0 .609.493 1.104 1.102 1.104h2.205c.609 0 1.104-.495 1.104-1.104v-4.41c0-.84-.471-1.571-1.162-1.943a1.09 1.09 0 0 0 .018-.189V30.85h-2.205zm-6.458.269v8.821c0 3.788-8.573 5.513-16.539 5.513s-16.539-1.725-16.539-5.513v-8.821z"/>
    <path d="M32.59 17.361c-1.277 0-2.554.208-3.77.625L6.395 25.676a2.82 2.82 0 0 0-1.93 2.701 2.82 2.82 0 0 0 1.93 2.701l22.426 7.689c2.43.833 5.109.833 7.537 0l22.428-7.689a2.82 2.82 0 0 0 1.93-2.701 2.82 2.82 0 0 0-1.93-2.701l-22.428-7.689c-1.214-.417-2.491-.625-3.768-.625z" stroke="#000" stroke-width="1.5" paint-order="stroke markers fill"/>
  </g>
</svg>
