<svg xmlns="http://www.w3.org/2000/svg" width="64" height="64">
  <path fill="#fff" d="M20.6 2C9 5-9.8 10 7 19c8.2 4.4 19.6 7.6 2 19-5 3.2-3 1.2-8.8 5v21h41c8-9 5-6 13-14 14.7-15 13.7-25-6-33-22-8-29-6-12.8-13L46 0H29.5c-4 1-3 .6-8.8 2z"/>
  <path d="M33.7 0C1 7.5-3 12 9 18c10 5 19.8 9 6 19L0 46.5V64h32.2l19.3-17c15-15 12-20.6-7-29-18.3-6.8-30.5-6.7-12-14.3L43.3 0z"/>
  <path fill="#fff" d="M37 0s-.1-.3-8.5 2.4C14 7 8 10 21 18c24.8 15.3 17 18 3 29L0 64h9s12.3-9.2 19-15c15-13 21-16 0-29-13-8-20-10 1-17l9-3"/>
</svg>
