<svg xmlns="http://www.w3.org/2000/svg" height="64" width="64">
  <defs>
    <radialGradient r="42" fy="3" fx="23" cy="3" cx="23" id="A" href="#F">
      <stop offset="0" stop-color="#d3e9ff"/>
      <stop offset=".16" stop-color="#d3e9ff"/>
      <stop offset=".75" stop-color="#4074ae"/>
      <stop offset="1" stop-color="#36486c"/>
    </radialGradient>
    <radialGradient id="B">
      <stop offset="0"/>
      <stop offset="1" stop-opacity="0"/>
    </radialGradient>
    <radialGradient r="60" fy="15" fx="20" cy="15" cx="20" id="C" href="#F">
      <stop offset="0" stop-color="#fff"/>
      <stop offset="1" stop-color="#fff" stop-opacity=".16"/>
    </radialGradient>
    <radialGradient r="40" fy="10" fx="26" cy="10" cx="26" id="D" href="#F">
      <stop offset="0" stop-color="#fff"/>
      <stop offset="1" stop-color="#fff" stop-opacity="0"/>
    </radialGradient>
    <circle id="E" cx="32" cy="14" r="27"/>
    <linearGradient id="F" gradientUnits="userSpaceOnUse"/>
    <linearGradient id="G" x1="38" y1="50" x2="28" y2="18" href="#F">
      <stop offset="0" stop-color="#4e9a06"/>
      <stop offset="1" stop-color="#8ae234"/>
    </linearGradient>
  </defs>
  <ellipse cx="32.5" cy="50" rx="28" ry="13" fill="url(#B)"/>
  <use href="#E" fill="url(#A)" y="16"/>
  <ellipse cx="32" cy="18.5" rx="15" ry="13" opacity=".42" fill="url(#D)"/>
  <path fill="url(#G)" stroke="#172a04" stroke-width="1.98" stroke-linejoin="round" paint-order="stroke fill markers" d="M24.22 16.96l-.87-.66.29 1.55zM22.44 6.88l.99-.22a16.6 16.6 0 0 1 2.07-.78l-.39-.66-1.27.17-.59.59-.99.15-.88.42-.43.2-.26.35 1.27.22zm-4.02 3.22l-.49 1.21h.99l.49-1.1 1.27-.89.99.34 1.96 1.33.99-.89-1.08-.44-.49-1-1.87-.22-.09-.55-.88.23-.39.78-.49-1-.19.44.09 1.1-.78.66m2.53.86l.99.66h.78v-.78l-.99-.44-.78.55m2.16 25.16l-.78-1.55-1.47-.34-.78-2.1-1.96.22-1.68-1.21-1.77 1.55v.24c-.54-.15-1.19-.17-1.68-.47l-.39-1.1v-1.22l-1.18.11.3-2.33h-.69l-.69.89-.69.34-.99-.55-.09-1.22.2-1.33 1.47-1.1h1.18l.19-.66 1.47.34 1.08 1.33.2-2.22 1.87-1.55.69-1.66 1.38-.55.78-1.1 1.77-.34.88-1.33h-2.65l1.68-.8h1.18l1.68-.55.2-.66-.59-.55-.69-.22.2-.66-.49-1-1.18.44.2-.89-1.38-.78-1.08 1.88.09.66-1.08.44-.69 1.44-.3-1.33-1.86-.77-.3-1 2.46-1.44 1.08-1 .09-1.21-.59-.34-.78-.11-.49 1.22-1.03.22a27.9 27.9 0 0 0-9.42 17.92 15.2 15.2 0 0 0 .92 1.59l2.07 1.21 2.07.55.88 1.1 1.38 1 .78-.11.59.27v.17l-.78 2.1-.59.89.2.44-.49 1.66 1.77 3.22 1.77 1.55.78 1.1-.09 2.33.59 1.33-.59 2.54s-.04-.01.03.24a11.9 11.9 0 0 0 3.34 1.8l.37-.28-.19-.55.78-.78.3-.78 1.28-.44.99-2.44-.3-.66.69-1 1.47-.34.78-1.78-.2-2.21 1.18-1.66.2-1.66-4.81-2.44m14.28-19.66l1.09-.21.78-.78-.69-.66c-.23-.62-.5-1.18-.78-1.78h-.59v.66l.39.44.01 1zm-.19-1.12l-.39-1-.69.22.2 1.21.88-.44M32.08 5l-2.95.34-3.64 1-.69.66 2.26 1.55v.89l-.88.89 1.18 2.33.78-.44.99-1.55A33.9 33.9 0 0 0 33.46 9l1.18-2.99zm1.38 6.21l.69.44 1.18-.78-.59-.66-.78.44-.39-.11zm24.43 14.77c0 .35 0 0 0 0l-.73.83c-.45-.52-.96-.97-1.47-1.44l-1.14.16-1.03-1.16v1.44l.88.67.59.66.78-.89.59 1.1v1.1l-.89 1-1.62 1.1-1.23 1.22-.78-.89.39-1-.78-.89-1.33-2.83-1.14-1.28-.3.34.45 1.6.84.94 1.57 3.98c.95-.02 1.91-.09 2.85-.23v.78l-1.18 2.88-1.08 1.21-.88 1.88v3.1l.3 1.22-.49.55-1.08.66-1.14.94.93 1.05-1.28 1.1.24.71-1.92 2.17h-1.27l-1.08.66h-.69v-.89l-.3-1.78-1.18-3.32.09-2.44.49-1.1-.69-1.33.05-1.83-.93-1.05.47-1.52-.76-.86h-1.33l-.45-.5-1.33.83-.54-.61-1.23 1.05-2.5-2.83-.99-2.33.88-1.33-.49-.55 1.08-2.54 2.76-3.22 1.68-.44 1.87-.22 1.28.34 1.81 1.83.64-.71.88-.11 1.68.55h1.28l.88-.78.39-.55-.89-.55-1.47-.11c-.41-.57-.78-1.16-1.27-1.66l-.49.22-.2 1.44-.88-1-.19-1.1-.99-.77h-.39l.99 1.1-.39 1-.78.22.49-1-.89-.44-.78-.89-1.47.34-.19.44-.88.55-.49 1.22-1.23.61-.54-.61h-.59v-1.92l1.28-.66h.99l-.2-.78-.78-.78 1.33-.28.73-.83.59-1h1.08l-.3-.78.69-.44v.89l1.47.34 1.47-1.21.09-.55 1.27-.89-1.38.22v-1l.49-1.1h-.49l-1.08 1-.3.55.3.78-.49 1.33-.78-.44-.69-.78-1.08.78-.39-1.78 1.87-1.21v-.66l1.18-.78 1.87-.44 1.28.44 2.35.44-.59.66h-1.28l1.28 1.33.99-1.1.3-.48s3.77 3.37 5.92 7.04 3.16 8.02 3.16 8.9z"/>
  <g fill="none" stroke-width="2">
    <circle cx="32" cy="30" r="25" stroke="url(#C)"/>
    <use href="#E" stroke="#39396c" y="16"/>
  </g>
</svg>
