<?xml version="1.0" encoding="UTF-8" standalone="no"?>
<svg
   width="64"
   height="64"
   viewBox="0 0 59.999956 60.000096"
   version="1.1"
   id="svg35"
   xmlns="http://www.w3.org/2000/svg"
   xmlns:svg="http://www.w3.org/2000/svg">
  <defs
     id="defs35" />
  <g
     id="g35"
     transform="matrix(0.51390128,0,0,0.51390128,-21.683286,-18.966404)">
    <path
       d="m 61.464915,84.053772 15.555,5.662 15.786,-5.746 -15.555,-5.662 z m 15.623,-12.783 15.556,5.662 15.784995,-5.746 -15.554995,-5.662 z"
       fill="#f7f7f4"
       stroke="#cccccc"
       stroke-width="0.355"
       stroke-linejoin="bevel"
       id="path1" />
    <path
       d="m 77.087915,71.270772 15.556,5.662 v 18.282 l -15.556,-5.661 z"
       fill="#efeeea"
       stroke="#cccccc"
       stroke-width="0.355"
       stroke-linejoin="bevel"
       id="path2" />
    <path
       d="m 45.841915,108.19777 15.555,5.663 15.786,-5.746 -15.556,-5.662 z"
       fill="#f7f7f4"
       stroke="#cccccc"
       stroke-width="0.355"
       stroke-linejoin="bevel"
       id="path3" />
    <path
       d="m 45.841915,108.19777 15.555,5.663 v 18.282 l -15.555,-5.661 z"
       fill="#efeeea"
       stroke="#cccccc"
       stroke-width="0.355"
       stroke-linejoin="bevel"
       id="path4" />
    <path
       d="m 45.841915,82.197772 15.555,5.663 15.786,-5.746 -15.556,-5.662 z"
       fill="#f7f7f4"
       stroke="#cccccc"
       stroke-width="0.355"
       stroke-linejoin="bevel"
       id="path5" />
    <path
       d="m 61.396915,87.860772 v 18.281998 l 15.786,-5.745 V 82.114772 Z"
       fill="#ffffff"
       stroke="#cccccc"
       stroke-width="0.355"
       stroke-linejoin="bevel"
       id="path6" />
    <path
       d="m 45.841915,82.197772 15.555,5.663 v 18.281998 l -15.555,-5.661 z"
       fill="#efeeea"
       stroke="#cccccc"
       stroke-width="0.355"
       stroke-linejoin="bevel"
       id="path7" />
    <path
       d="m 61.463915,113.87977 15.556,5.662 v 18.283 l -15.555,-5.662 z"
       fill="#efeeea"
       stroke="#cccccc"
       stroke-width="0.355"
       stroke-linejoin="bevel"
       id="path10" />
    <path
       d="m 61.463915,95.415772 15.556,5.661998 15.786,-5.745998 -15.555,-5.661 z"
       fill="#f7f7f4"
       stroke="#cccccc"
       stroke-width="0.355"
       stroke-linejoin="bevel"
       id="path11" />
    <path
       d="m 61.463915,95.415772 15.556,5.661998 v 18.283 l -15.555,-5.662 z"
       fill="#efeeea"
       stroke="#cccccc"
       stroke-width="0.355"
       stroke-linejoin="bevel"
       id="path12" />
    <path
       d="m 139.51391,108.17877 v 18.283 l 15.785,-5.745 v -18.283 z"
       fill="#ffffff"
       stroke="#cccccc"
       stroke-width="0.355"
       stroke-linejoin="bevel"
       id="path13" />
    <path
       d="m 123.88991,113.86077 v 18.282 l 15.786,-5.745 v -18.283 z"
       fill="#ffd242"
       stroke="#cccccc"
       stroke-width="0.355"
       stroke-linejoin="bevel"
       id="path14" />
    <path
       d="m 136.81491,118.31777 a 2.617,3.737 35 0 1 -3.032,4.33 2.617,3.737 35 0 1 -3.031,-2.122 2.617,3.737 35 0 1 3.031,-4.33 2.617,3.737 35 0 1 3.032,2.123 z"
       fill="#ffffff"
       id="path15" />
    <path
       d="m 108.26691,119.54177 v 18.283 l 15.786,-5.746 v -18.283 z"
       fill="#ffd242"
       stroke="#cccccc"
       stroke-width="0.355"
       stroke-linejoin="bevel"
       id="path16" />
    <path
       d="m 92.643915,125.22277 v 18.283 l 15.784995,-5.746 v -18.282 z"
       fill="#ffffff"
       stroke="#cccccc"
       stroke-width="0.355"
       stroke-linejoin="bevel"
       id="path17" />
    <path
       d="m 77.087915,119.56077 15.556,5.662 v 18.283 l -15.556,-5.662 z"
       fill="#efeeea"
       stroke="#cccccc"
       stroke-width="0.355"
       stroke-linejoin="bevel"
       id="path18" />
    <path
       d="m 139.51391,89.715772 v 18.281998 l 15.785,-5.745 V 83.969772 Z"
       fill="#ffd242"
       stroke="#cccccc"
       stroke-width="0.355"
       stroke-linejoin="bevel"
       id="path19" />
    <path
       d="m 123.95791,65.589772 15.556,5.662 15.785,-5.746 -15.555,-5.662 z"
       fill="#ffc91d"
       stroke="#cccccc"
       stroke-width="0.355"
       stroke-linejoin="bevel"
       id="path20" />
    <path
       d="m 139.51391,71.251772 v 18.282 l 15.785,-5.745 v -18.283 z m -15.624,24.145 v 18.281998 l 15.786,-5.745 V 89.650772 Z"
       fill="#ffd242"
       stroke="#cccccc"
       stroke-width="0.355"
       stroke-linejoin="bevel"
       id="path21" />
    <path
       d="m 123.88991,76.932772 v 18.282 l 15.786,-5.745 v -18.283 z"
       fill="#3775a9"
       stroke="#cccccc"
       stroke-width="0.355"
       stroke-linejoin="bevel"
       id="path22" />
    <path
       d="m 108.33491,52.806772 15.555,5.662 15.786,-5.746 -15.555,-5.661 z"
       fill="#2f6491"
       stroke="#cccccc"
       stroke-width="0.355"
       stroke-linejoin="bevel"
       id="path23" />
    <path
       d="m 123.88991,58.467772 v 18.283 l 15.786,-5.745 v -18.283 z"
       fill="#3775a9"
       stroke="#cccccc"
       stroke-width="0.355"
       stroke-linejoin="bevel"
       id="path24" />
    <path
       d="m 108.26691,101.07777 v 18.283 l 15.786,-5.746 V 95.331772 Z"
       fill="#ffd242"
       stroke="#cccccc"
       stroke-width="0.355"
       stroke-linejoin="bevel"
       id="path25" />
    <path
       d="m 108.26691,82.613772 v 18.282998 l 15.786,-5.745998 v -18.283 z M 92.643915,106.75877 v 18.283 l 15.784995,-5.746 v -18.282 z"
       fill="#3775a9"
       stroke="#cccccc"
       stroke-width="0.355"
       stroke-linejoin="bevel"
       id="path26" />
    <path
       d="m 77.087915,101.09777 15.556,5.661 v 18.283 l -15.556,-5.662 z m 0,-18.464998 15.556,5.662 15.784995,-5.745 -15.554995,-5.662 z"
       fill="#2f6491"
       stroke="#cccccc"
       stroke-width="0.355"
       stroke-linejoin="bevel"
       id="path27" />
    <path
       d="m 92.643915,88.294772 v 18.282998 l 15.784995,-5.746 V 82.549772 Z"
       fill="#3775a9"
       stroke="#cccccc"
       stroke-width="0.355"
       stroke-linejoin="bevel"
       id="path28" />
    <path
       d="m 77.087915,82.632772 15.556,5.662 v 18.282998 l -15.556,-5.662 z m 15.624,-24.145 15.554995,5.662 15.786,-5.746 -15.556,-5.661 z"
       fill="#2f6491"
       stroke="#cccccc"
       stroke-width="0.355"
       stroke-linejoin="bevel"
       id="path29" />
    <path
       d="m 108.26691,64.149772 v 18.283 l 15.786,-5.746 v -18.283 z"
       fill="#3775a9"
       stroke="#cccccc"
       stroke-width="0.355"
       stroke-linejoin="bevel"
       id="path30" />
    <path
       d="m 92.711915,58.487772 15.554995,5.662 v 18.283 l -15.554995,-5.662 z"
       fill="#2f6491"
       stroke="#cccccc"
       stroke-width="0.355"
       stroke-linejoin="bevel"
       id="path31" />
    <path
       d="m 117.19191,70.021772 a 2.617,3.737 35 0 1 -3.032,4.33 2.617,3.737 35 0 1 -3.03199,-2.123 2.617,3.737 35 0 1 3.03199,-4.33 2.617,3.737 35 0 1 3.032,2.123 z"
       fill="#ffffff"
       id="path32" />
  </g>
</svg>
